<svg id="Capa_1" enable-background="new 0 0 512 512" height="512" viewBox="0 0 512 512" width="512" xmlns="http://www.w3.org/2000/svg"><g><path d="m509.725 250.504-85.661-85.663c-3.033-3.033-7.959-3.033-10.993 0l-34.645 34.646c-3.033 3.033-3.033 7.96 0 10.993l13.252 13.252h-95.643c-4.292 0-7.766-3.474-7.766-7.766v-95.646l13.251 13.252c3.033 3.033 7.96 3.033 10.993 0l34.645-34.646c3.033-3.033 3.033-7.96 0-10.993l-85.662-85.663c-1.516-1.517-3.506-2.27-5.496-2.27s-3.98.753-5.496 2.27l-85.661 85.663c-3.033 3.033-3.033 7.96 0 10.993l34.645 34.646c3.033 3.033 7.959 3.033 10.993 0l13.251-13.252v95.645c0 4.292-3.474 7.766-7.766 7.766h-95.643l13.252-13.252c3.033-3.033 3.033-7.96 0-10.993l-34.646-34.646c-3.033-3.033-7.959-3.033-10.993 0l-85.661 85.664c-3.033 3.033-3.033 7.96 0 10.993l85.661 85.663c3.033 3.033 7.96 3.033 10.993 0l34.645-34.646c3.033-3.033 3.033-7.96 0-10.993l-13.252-13.252h95.643c4.292 0 7.766 3.474 7.766 7.766v95.645l-13.251-13.252c-3.033-3.033-7.959-3.033-10.993 0l-34.645 34.646c-3.033 3.033-3.033 7.96 0 10.993l85.661 85.663c1.517 1.517 3.506 2.27 5.496 2.27s3.98-.753 5.496-2.27l85.661-85.663c3.033-3.033 3.033-7.96 0-10.993l-34.645-34.646c-3.033-3.033-7.96-3.033-10.993 0l-13.251 13.252v-95.645c0-4.292 3.474-7.766 7.766-7.766h95.643l-13.252 13.252c-3.033 3.033-3.033 7.96 0 10.993l34.645 34.646c3.033 3.033 7.959 3.033 10.993 0l85.661-85.663c3.035-3.034 3.035-7.96.002-10.993z"/></g></svg>